<svg xmlns="http://www.w3.org/2000/svg" viewBox="0 0 267.63 142.17"><defs><style>.cls-1{fill:#bca685;}</style></defs><g id="Layer_2" data-name="Layer 2"><g id="Layer_1-2" data-name="Layer 1"><path class="cls-1" d="M239.06,75.89a81.28,81.28,0,0,1-25,26.91c-15.63,10.59-32.92,15-52.4,14,1.06-2.69,1.89-5,2.84-7.2A121.78,121.78,0,0,1,197,64.76,115.62,115.62,0,0,1,239.14,41.1c7.16-2.18,14.61-3.39,21.92-5.11,2-.47,2.88.22,3.42,2.16A80.31,80.31,0,0,1,261.58,91c-5.87,14.61-14.83,26.82-27.63,36a79.9,79.9,0,0,1-36,14.26c-22.58,3.23-42.71-3.16-61.28-15.55-2.22-1.49-3.68-1.5-5.88,0-10.56,7.11-21.93,12.45-34.53,14.91a79.63,79.63,0,0,1-36.58-1.32c-14.52-3.94-27.28-11-37.41-22.27C6.91,100-1,80,.1,56.83.38,50.89,1.69,45,2.73,39.09c.57-3.24,1-3.42,4.19-3A120.07,120.07,0,0,1,63.21,59a121,121,0,0,1,41.65,55.38c.71,1.88.47,2.58-1.67,2.64-20.81.54-39.43-5.45-55.63-18.59A84.67,84.67,0,0,1,29.44,77.75a13.54,13.54,0,0,1-.86-1.7c0-.11.05-.3.15-.85,4.8,1.77,10.22,2,13.6,6.61C51.29,94,63.77,101,77.75,105.66c4.33,1.43,9,1.84,13.6,2.4,2.41.3,2.67-.44,1.41-2.59C87.4,96.28,82,87.05,74.77,79.21,61.23,64.53,45.68,52.74,25.94,47.63c-4.31-1.12-8.81-1.49-13.21-2.26-2-.35-2.83.61-3.35,2.44A47.31,47.31,0,0,0,9,70.64a210.39,210.39,0,0,0,5.87,22.21A44.43,44.43,0,0,0,26.63,111c8.82,8.53,18.58,15.64,30.38,19.57A71.17,71.17,0,0,0,91.11,133c9.73-1.53,19.14-3.88,27.36-9.58,2.49-1.72,4.75-3.77,7.12-5.68,1.52-1.23.5-2.17-.33-3.2a90.87,90.87,0,0,1-14.52-24.41c-7.42-19.22-7.54-38.6-.69-57.93C114.49,19.73,121.56,8.92,132.27.73c1.27-1,2-1,3.18.13a85.16,85.16,0,0,1,23,36.84A79.91,79.91,0,0,1,156.93,90a76.89,76.89,0,0,1-14.24,24.53c-1.58,1.81-1.44,2.85.38,4.43A56.89,56.89,0,0,0,170,131.85c10.2,2,20.37,3,30.72,1.19,13-2.31,24-8.32,34.12-16.53A59.78,59.78,0,0,0,256,82.14c1.8-7.9,3.75-15.73,3.4-23.89a71.08,71.08,0,0,0-1.28-10c-.56-2.94-1.13-3.17-4.15-2.89-15,1.37-28.29,7.09-40.7,15.59-16.89,11.57-29,27.06-38.66,44.73-1.08,2-.85,2.32,1.35,2.38A40.45,40.45,0,0,0,192.13,105c10.24-4.08,20.05-8.86,27.76-17a32.54,32.54,0,0,0,4.22-4.9c2.26-3.63,5.84-5.05,9.57-6.32,1.62-.55,3.3-.94,4.95-1.41ZM152.75,60.14c-.91-18.26-6.51-32.9-17.16-45.61-1.26-1.49-2-1.73-3.58-.26-10.55,10-15,22.82-17,36.69a71.48,71.48,0,0,0,5.07,38.29,73.42,73.42,0,0,0,11.86,19.36c1.23,1.45,2.14,1.75,3.59.08C148.06,94.24,153,77.25,152.75,60.14Z"/></g></g></svg>